<?xml version="1.0" encoding="iso-8859-1"?>
<svg xmlns="http://www.w3.org/2000/svg" xmlns:xlink="http://www.w3.org/1999/xlink" version="1.1" viewBox="0 0 511 511" enable-background="new 0 0 511 511" width="512px" height="512px">
  <g>
    <path d="m224.43,65.777c8.42,3.368 19.454,5.223 31.07,5.223s22.65-1.855 31.07-5.223c14.295-5.718 16.43-13.905 16.43-18.277 0-4.142-3.358-7.5-7.5-7.5-4.088,0-7.412,3.27-7.498,7.337-1.115,2.538-12.129,8.663-32.502,8.663-19.95,0-30.925-5.874-32.419-8.5 1.495-2.626 12.47-8.5 32.419-8.5 4.142,0 7.5-3.358 7.5-7.5s-3.358-7.5-7.5-7.5c-11.616,0-22.65,1.855-31.07,5.223-14.295,5.718-16.43,13.905-16.43,18.277s2.135,12.559 16.43,18.277z" fill="#adc22f"/>
    <path d="m399.5,192c-26.847,0-50.177,7.574-64.5,19.411v-163.911c0-26.636-34.92-47.5-79.5-47.5s-79.5,20.864-79.5,47.5v99.911c-14.323-11.837-37.653-19.411-64.5-19.411-44.58,0-79.5,20.864-79.5,47.5v288c0,26.636 34.92,47.5 79.5,47.5 32.241,0 59.419-10.917 72-27.033 12.581,16.117 39.759,27.033 72,27.033s59.419-10.917 72-27.033c12.581,16.117 39.759,27.033 72,27.033 1.434,0 2.858-0.023 4.271-0.066 0.044-0.001 0.088-0.004 0.131-0.006 17.997-0.561 34.224-4.545 46.955-10.908 0.647-0.322 1.281-0.651 1.908-0.985 0.297-0.159 0.593-0.318 0.886-0.48 0.737-0.404 1.462-0.815 2.17-1.235 0.138-0.082 0.273-0.166 0.409-0.248 0.798-0.48 1.58-0.968 2.34-1.468 0.005-0.004 0.011-0.007 0.016-0.01 0.8-0.526 1.574-1.066 2.331-1.612 0.077-0.056 0.155-0.11 0.231-0.166 0.721-0.526 1.419-1.061 2.1-1.604 0.106-0.084 0.211-0.17 0.316-0.255 0.655-0.531 1.294-1.069 1.91-1.616 0.119-0.105 0.234-0.213 0.352-0.319 0.556-0.502 1.098-1.01 1.621-1.525 0.157-0.154 0.309-0.309 0.463-0.464 0.429-0.434 0.845-0.872 1.25-1.313 0.189-0.206 0.381-0.41 0.565-0.618 0.404-0.457 0.792-0.919 1.171-1.385 0.228-0.28 0.453-0.56 0.673-0.842 0.332-0.429 0.654-0.86 0.965-1.295 0.235-0.329 0.461-0.66 0.684-0.992 0.159-0.237 0.31-0.475 0.463-0.713 0.342-0.534 0.669-1.073 0.98-1.616 0.119-0.209 0.235-0.419 0.349-0.629 0.305-0.56 0.594-1.125 0.865-1.695 0.112-0.235 0.222-0.47 0.329-0.707 0.22-0.489 0.426-0.981 0.62-1.477 0.131-0.334 0.259-0.668 0.379-1.004 0.112-0.316 0.223-0.632 0.325-0.95 0.169-0.525 0.321-1.053 0.461-1.583 0.068-0.258 0.132-0.517 0.193-0.777 0.14-0.593 0.265-1.189 0.369-1.787 0.032-0.184 0.059-0.368 0.087-0.553 0.104-0.672 0.191-1.347 0.25-2.025 0.008-0.095 0.012-0.192 0.019-0.287 0.058-0.758 0.094-1.52 0.094-2.284v-224c-0.001-26.637-34.921-47.501-79.501-47.501zm0,15c38.583,0 64.5,16.805 64.5,32.5s-25.917,32.5-64.5,32.5-64.5-16.805-64.5-32.5 25.917-32.5 64.5-32.5zm-144-192c38.583,0 64.5,16.805 64.5,32.5s-25.917,32.5-64.5,32.5-64.5-16.805-64.5-32.5 25.917-32.5 64.5-32.5zm-144,128c38.583,0 64.5,16.805 64.5,32.5s-25.917,32.5-64.5,32.5-64.5-16.805-64.5-32.5 25.917-32.5 64.5-32.5zm0,353c-38.583,0-64.5-16.805-64.5-32.5v-3.911c14.323,11.837 37.653,19.411 64.5,19.411 5.715,0 11.417-0.354 16.946-1.051 4.11-0.519 7.021-4.27 6.502-8.379-0.519-4.109-4.267-7.022-8.379-6.502-4.909,0.618-9.979,0.932-15.069,0.932-38.583,0-64.5-16.805-64.5-32.5v-3.911c14.323,11.837 37.653,19.411 64.5,19.411 5.715,0 11.417-0.354 16.946-1.051 4.11-0.519 7.021-4.27 6.502-8.379s-4.267-7.025-8.379-6.502c-4.909,0.618-9.979,0.932-15.069,0.932-38.583,0-64.5-16.805-64.5-32.5v-3.911c14.323,11.837 37.653,19.411 64.5,19.411 5.715,0 11.417-0.354 16.946-1.051 4.11-0.519 7.021-4.27 6.502-8.379-0.519-4.109-4.267-7.028-8.379-6.502-4.909,0.618-9.979,0.932-15.069,0.932-38.583,0-64.5-16.805-64.5-32.5v-3.911c14.323,11.837 37.653,19.411 64.5,19.411 5.715,0 11.417-0.354 16.946-1.051 4.11-0.519 7.021-4.27 6.502-8.379s-4.267-7.024-8.379-6.502c-4.909,0.618-9.979,0.932-15.069,0.932-38.583,0-64.5-16.805-64.5-32.5v-3.911c14.323,11.837 37.653,19.411 64.5,19.411 5.715,0 11.417-0.354 16.946-1.051 4.11-0.519 7.021-4.27 6.502-8.379-0.519-4.109-4.267-7.027-8.379-6.502-4.909,0.618-9.979,0.932-15.069,0.932-38.583,0-64.5-16.805-64.5-32.5v-3.911c14.323,11.837 37.653,19.411 64.5,19.411 5.715,0 11.417-0.354 16.946-1.051 4.11-0.519 7.021-4.27 6.502-8.379s-4.267-7.024-8.379-6.502c-4.909,0.618-9.979,0.932-15.069,0.932-38.583,0-64.5-16.805-64.5-32.5v-3.911c14.323,11.837 37.653,19.411 64.5,19.411 5.715,0 11.417-0.354 16.946-1.051 4.11-0.519 7.021-4.27 6.502-8.379-0.519-4.109-4.267-7.027-8.379-6.502-4.909,0.618-9.979,0.932-15.069,0.932-38.583,0-64.5-16.805-64.5-32.5v-3.911c14.323,11.837 37.653,19.411 64.5,19.411 5.715,0 11.417-0.354 16.946-1.051 4.11-0.519 7.021-4.27 6.502-8.379s-4.267-7.023-8.379-6.502c-4.909,0.618-9.979,0.932-15.069,0.932-38.583,0-64.5-16.805-64.5-32.5v-3.911c14.323,11.837 37.653,19.411 64.5,19.411s50.177-7.574 64.5-19.411v3.911c0,8.41-7.23,16.829-19.838,23.099-3.709,1.844-5.221,6.346-3.376,10.055 1.311,2.636 3.964,4.162 6.721,4.162 1.122,0 2.261-0.252 3.333-0.786 5.002-2.487 9.407-5.32 13.159-8.423v3.894c0,8.41-7.23,16.829-19.838,23.099-3.709,1.844-5.221,6.346-3.376,10.055 1.311,2.636 3.964,4.162 6.721,4.162 1.122,0 2.261-0.252 3.333-0.786 5.002-2.487 9.407-5.32 13.159-8.423v3.894c0,8.41-7.23,16.829-19.838,23.099-3.709,1.844-5.221,6.346-3.376,10.055 1.311,2.636 3.964,4.162 6.721,4.162 1.122,0 2.261-0.252 3.333-0.786 5.002-2.487 9.407-5.32 13.159-8.423v3.894c0,8.41-7.23,16.829-19.838,23.099-3.709,1.844-5.221,6.346-3.376,10.055 1.311,2.636 3.964,4.162 6.721,4.162 1.122,0 2.261-0.252 3.333-0.786 5.002-2.487 9.407-5.32 13.159-8.423v3.894c0,8.41-7.23,16.829-19.838,23.099-3.709,1.844-5.221,6.346-3.376,10.055 1.311,2.636 3.964,4.162 6.721,4.162 1.122,0 2.261-0.252 3.333-0.786 5.002-2.487 9.407-5.32 13.159-8.423v3.894c0,8.41-7.23,16.829-19.838,23.099-3.709,1.844-5.221,6.346-3.376,10.055 1.311,2.636 3.964,4.162 6.721,4.162 1.122,0 2.261-0.252 3.333-0.786 5.002-2.487 9.407-5.32 13.159-8.423v3.894c0,8.41-7.23,16.829-19.838,23.099-3.709,1.844-5.221,6.346-3.376,10.055 1.311,2.636 3.964,4.162 6.721,4.162 1.122,0 2.261-0.252 3.333-0.786 5.002-2.487 9.407-5.32 13.159-8.423v3.894c0,8.41-7.23,16.829-19.838,23.099-3.709,1.844-5.221,6.346-3.376,10.055 1.311,2.636 3.964,4.162 6.721,4.162 1.122,0 2.261-0.252 3.333-0.786 5.002-2.487 9.407-5.32 13.159-8.423v3.894c0.008,15.687-25.909,32.492-64.492,32.492zm144,0c-38.583,0-64.5-16.805-64.5-32.5v-3.911c14.323,11.837 37.653,19.411 64.5,19.411 5.715,0 11.417-0.354 16.946-1.051 4.11-0.519 7.021-4.27 6.502-8.379-0.519-4.109-4.267-7.022-8.379-6.502-4.909,0.618-9.979,0.932-15.069,0.932-38.583,0-64.5-16.805-64.5-32.5v-3.911c14.323,11.837 37.653,19.411 64.5,19.411 5.715,0 11.417-0.354 16.946-1.051 4.11-0.519 7.021-4.27 6.502-8.379s-4.267-7.025-8.379-6.502c-4.909,0.618-9.979,0.932-15.069,0.932-38.583,0-64.5-16.805-64.5-32.5v-3.911c14.323,11.837 37.653,19.411 64.5,19.411 5.715,0 11.417-0.354 16.946-1.051 4.11-0.519 7.021-4.27 6.502-8.379-0.519-4.109-4.267-7.028-8.379-6.502-4.909,0.618-9.979,0.932-15.069,0.932-38.583,0-64.5-16.805-64.5-32.5v-3.911c14.323,11.837 37.653,19.411 64.5,19.411 5.715,0 11.417-0.354 16.946-1.051 4.11-0.519 7.021-4.27 6.502-8.379s-4.267-7.024-8.379-6.502c-4.909,0.618-9.979,0.932-15.069,0.932-38.583,0-64.5-16.805-64.5-32.5v-3.911c14.323,11.837 37.653,19.411 64.5,19.411 5.715,0 11.417-0.354 16.946-1.051 4.11-0.519 7.021-4.27 6.502-8.379-0.519-4.109-4.267-7.027-8.379-6.502-4.909,0.618-9.979,0.932-15.069,0.932-38.583,0-64.5-16.805-64.5-32.5v-3.911c14.323,11.837 37.653,19.411 64.5,19.411 5.715,0 11.417-0.354 16.946-1.051 4.11-0.519 7.021-4.27 6.502-8.379s-4.267-7.024-8.379-6.502c-4.909,0.618-9.979,0.932-15.069,0.932-38.583,0-64.5-16.805-64.5-32.5v-3.911c14.323,11.837 37.653,19.411 64.5,19.411 5.715,0 11.417-0.354 16.946-1.051 4.11-0.519 7.021-4.27 6.502-8.379-0.519-4.109-4.267-7.027-8.379-6.502-4.909,0.618-9.979,0.932-15.069,0.932-38.583,0-64.5-16.805-64.5-32.5v-3.911c14.323,11.837 37.653,19.411 64.5,19.411 5.715,0 11.417-0.354 16.946-1.051 4.11-0.519 7.021-4.27 6.502-8.379s-4.267-7.023-8.379-6.502c-4.909,0.618-9.979,0.932-15.069,0.932-38.583,0-64.5-16.805-64.5-32.5v-3.911c14.323,11.837 37.653,19.411 64.5,19.411 5.715,0 11.417-0.354 16.946-1.051 4.11-0.519 7.021-4.27 6.502-8.379-0.519-4.109-4.267-7.026-8.379-6.502-4.909,0.618-9.979,0.932-15.069,0.932-38.583,0-64.5-16.805-64.5-32.5v-3.911c14.323,11.837 37.653,19.411 64.5,19.411 5.715,0 11.417-0.354 16.946-1.051 4.11-0.519 7.021-4.27 6.502-8.379-0.519-4.109-4.267-7.022-8.379-6.502-4.909,0.618-9.979,0.932-15.069,0.932-38.583,0-64.5-16.805-64.5-32.5v-3.911c14.323,11.837 37.653,19.411 64.5,19.411 5.715,0 11.417-0.354 16.946-1.051 4.11-0.519 7.021-4.27 6.502-8.379s-4.267-7.025-8.379-6.502c-4.909,0.618-9.979,0.932-15.069,0.932-38.583,0-64.5-16.805-64.5-32.5v-3.911c14.323,11.837 37.653,19.411 64.5,19.411 5.715,0 11.417-0.354 16.946-1.051 4.11-0.519 7.021-4.27 6.502-8.379-0.519-4.109-4.267-7.028-8.379-6.502-4.909,0.618-9.979,0.932-15.069,0.932-38.583,0-64.5-16.805-64.5-32.5v-3.911c14.323,11.837 37.653,19.411 64.5,19.411s50.177-7.574 64.5-19.411v3.911c0,8.41-7.23,16.829-19.838,23.099-3.709,1.844-5.221,6.346-3.376,10.055 1.311,2.636 3.964,4.162 6.721,4.162 1.122,0 2.261-0.252 3.333-0.786 5.002-2.487 9.407-5.32 13.159-8.423v3.894c0,8.41-7.23,16.829-19.838,23.099-3.709,1.844-5.221,6.346-3.376,10.055 1.311,2.636 3.964,4.162 6.721,4.162 1.122,0 2.261-0.252 3.333-0.786 5.002-2.487 9.407-5.32 13.159-8.423v3.894c0,8.41-7.23,16.829-19.838,23.099-3.709,1.844-5.221,6.346-3.376,10.055 1.311,2.636 3.964,4.162 6.721,4.162 1.122,0 2.261-0.252 3.333-0.786 5.002-2.487 9.407-5.32 13.159-8.423v3.894c0,8.41-7.23,16.829-19.838,23.099-3.709,1.844-5.221,6.346-3.376,10.055 1.311,2.636 3.964,4.162 6.721,4.162 1.122,0 2.261-0.252 3.333-0.786 5.002-2.487 9.407-5.32 13.159-8.423v3.894c0,8.41-7.23,16.829-19.838,23.099-3.709,1.844-5.221,6.346-3.376,10.055 1.311,2.636 3.964,4.162 6.721,4.162 1.122,0 2.261-0.252 3.333-0.786 5.002-2.487 9.407-5.32 13.159-8.423v3.894c0,8.41-7.23,16.829-19.838,23.099-3.709,1.844-5.221,6.346-3.376,10.055 1.311,2.636 3.964,4.162 6.721,4.162 1.122,0 2.261-0.252 3.333-0.786 5.002-2.487 9.407-5.32 13.159-8.423v3.894c0,8.41-7.23,16.829-19.838,23.099-3.709,1.844-5.221,6.346-3.376,10.055 1.311,2.636 3.964,4.162 6.721,4.162 1.122,0 2.261-0.252 3.333-0.786 5.002-2.487 9.407-5.32 13.159-8.423v3.894c0,8.41-7.23,16.829-19.838,23.099-3.709,1.844-5.221,6.346-3.376,10.055 1.311,2.636 3.964,4.162 6.721,4.162 1.122,0 2.261-0.252 3.333-0.786 5.002-2.487 9.407-5.32 13.159-8.423v3.894c0,8.41-7.23,16.829-19.838,23.099-3.709,1.844-5.221,6.346-3.376,10.055 1.311,2.636 3.964,4.162 6.721,4.162 1.122,0 2.261-0.252 3.333-0.786 5.002-2.487 9.407-5.32 13.159-8.423v3.894c0,8.41-7.23,16.829-19.838,23.099-3.709,1.844-5.221,6.346-3.376,10.055 1.311,2.636 3.964,4.162 6.721,4.162 1.122,0 2.261-0.252 3.333-0.786 5.002-2.487 9.407-5.32 13.159-8.423v3.894c0,8.41-7.23,16.829-19.838,23.099-3.709,1.844-5.221,6.346-3.376,10.055 1.311,2.636 3.964,4.162 6.721,4.162 1.122,0 2.261-0.252 3.333-0.786 5.002-2.487 9.407-5.32 13.159-8.423v3.894c0,8.41-7.23,16.829-19.838,23.099-3.709,1.844-5.221,6.346-3.376,10.055 1.311,2.636 3.964,4.162 6.721,4.162 1.122,0 2.261-0.252 3.333-0.786 5.002-2.487 9.407-5.32 13.159-8.423v3.894c0.012,15.683-25.905,32.488-64.488,32.488zm79.5-32.5v-3.911c14.323,11.837 37.653,19.411 64.5,19.411 5.715,0 11.417-0.354 16.946-1.051 4.11-0.519 7.021-4.27 6.502-8.379-0.518-4.109-4.267-7.022-8.379-6.502-4.909,0.618-9.979,0.932-15.069,0.932-38.583,0-64.5-16.805-64.5-32.5v-3.911c14.323,11.837 37.653,19.411 64.5,19.411 5.715,0 11.417-0.354 16.946-1.051 4.11-0.519 7.021-4.27 6.502-8.379-0.518-4.109-4.267-7.025-8.379-6.502-4.909,0.618-9.979,0.932-15.069,0.932-38.583,0-64.5-16.805-64.5-32.5v-3.911c14.323,11.837 37.653,19.411 64.5,19.411 5.715,0 11.417-0.354 16.946-1.051 4.11-0.519 7.021-4.27 6.502-8.379-0.518-4.109-4.267-7.028-8.379-6.502-4.909,0.618-9.979,0.932-15.069,0.932-38.583,0-64.5-16.805-64.5-32.5v-3.911c14.323,11.837 37.653,19.411 64.5,19.411 5.715,0 11.417-0.354 16.946-1.051 4.11-0.519 7.021-4.27 6.502-8.379-0.518-4.109-4.267-7.024-8.379-6.502-4.909,0.618-9.979,0.932-15.069,0.932-38.583,0-64.5-16.805-64.5-32.5v-3.911c14.323,11.837 37.653,19.411 64.5,19.411 5.715,0 11.417-0.354 16.946-1.051 4.11-0.519 7.021-4.27 6.502-8.379-0.518-4.109-4.267-7.027-8.379-6.502-4.909,0.618-9.979,0.932-15.069,0.932-38.583,0-64.5-16.805-64.5-32.5v-3.911c14.323,11.837 37.653,19.411 64.5,19.411 5.715,0 11.417-0.354 16.946-1.051 4.11-0.519 7.021-4.27 6.502-8.379-0.518-4.109-4.267-7.024-8.379-6.502-4.909,0.618-9.979,0.932-15.069,0.932-38.583,0-64.5-16.805-64.5-32.5v-3.911c14.323,11.837 37.653,19.411 64.5,19.411s50.177-7.574 64.5-19.411v3.911c0,8.41-7.23,16.829-19.838,23.099-3.709,1.844-5.221,6.346-3.376,10.055 1.311,2.636 3.964,4.162 6.721,4.162 1.122,0 2.261-0.252 3.333-0.786 5.002-2.487 9.407-5.32 13.159-8.423v3.894c0,8.41-7.23,16.829-19.838,23.099-3.709,1.844-5.221,6.346-3.376,10.055 1.311,2.636 3.964,4.162 6.721,4.162 1.122,0 2.261-0.252 3.333-0.786 5.002-2.487 9.407-5.32 13.159-8.423v3.894c0,8.41-7.23,16.829-19.838,23.099-3.709,1.844-5.221,6.346-3.376,10.055 1.311,2.636 3.964,4.162 6.721,4.162 1.122,0 2.261-0.252 3.333-0.786 5.002-2.487 9.407-5.32 13.159-8.423v3.894c0,8.41-7.23,16.829-19.838,23.099-3.709,1.844-5.221,6.346-3.376,10.055 1.311,2.636 3.964,4.162 6.721,4.162 1.122,0 2.261-0.252 3.333-0.786 5.002-2.487 9.407-5.32 13.159-8.423v3.894c0,8.41-7.23,16.829-19.838,23.099-3.709,1.844-5.221,6.346-3.376,10.055 1.311,2.636 3.964,4.162 6.721,4.162 1.122,0 2.261-0.252 3.333-0.786 5.002-2.487 9.407-5.32 13.159-8.423v3.894c0,8.41-7.23,16.829-19.838,23.099-3.709,1.844-5.221,6.346-3.376,10.055 1.311,2.636 3.964,4.162 6.721,4.162 1.122,0 2.261-0.252 3.333-0.786 5.002-2.487 9.407-5.32 13.159-8.423v3.894c0,0.503-0.029,1.005-0.081,1.508-0.035,0.335-0.095,0.671-0.153,1.006-0.027,0.157-0.044,0.315-0.075,0.472-0.091,0.443-0.204,0.885-0.334,1.327-0.013,0.045-0.022,0.089-0.035,0.134-0.44,1.455-1.092,2.906-1.943,4.337-0.013,0.022-0.026,0.045-0.039,0.067-0.254,0.424-0.531,0.846-0.821,1.266-0.061,0.089-0.121,0.178-0.184,0.267-0.242,0.342-0.501,0.682-0.765,1.02-0.155,0.197-0.31,0.394-0.473,0.589-0.182,0.221-0.372,0.441-0.564,0.66-0.317,0.359-0.638,0.716-0.981,1.07-0.048,0.05-0.096,0.1-0.145,0.151-3.297,3.363-7.76,6.497-13.244,9.224-0.32,0.159-0.617,0.344-0.904,0.541-7.65,3.678-17.17,6.492-28.146,7.886-0.181,0.01-0.361,0.018-0.544,0.041-4.903,0.614-9.973,0.928-15.063,0.928-38.583,0-64.5-16.805-64.5-32.5z" fill="#adc22f"/>
    <path d="m368.43,257.777c8.42,3.368 19.454,5.223 31.07,5.223s22.65-1.855 31.07-5.223c14.295-5.718 16.43-13.905 16.43-18.277 0-4.142-3.358-7.5-7.5-7.5-4.088,0-7.412,3.27-7.498,7.337-1.115,2.538-12.129,8.663-32.502,8.663-19.95,0-30.925-5.874-32.419-8.5 1.495-2.626 12.469-8.5 32.419-8.5 4.142,0 7.5-3.358 7.5-7.5s-3.358-7.5-7.5-7.5c-11.616,0-22.65,1.855-31.07,5.223-14.295,5.718-16.43,13.905-16.43,18.277s2.135,12.559 16.43,18.277z" fill="#adc22f"/>
    <path d="m80.43,193.777c8.42,3.368 19.454,5.223 31.07,5.223s22.65-1.855 31.07-5.223c14.295-5.718 16.43-13.905 16.43-18.277 0-4.142-3.358-7.5-7.5-7.5-4.088,0-7.412,3.27-7.498,7.337-1.115,2.538-12.129,8.663-32.502,8.663-19.95,0-30.925-5.874-32.419-8.5 1.495-2.626 12.469-8.5 32.419-8.5 4.142,0 7.5-3.358 7.5-7.5s-3.358-7.5-7.5-7.5c-11.616,0-22.65,1.855-31.07,5.223-14.295,5.718-16.43,13.905-16.43,18.277s2.135,12.559 16.43,18.277z" fill="#adc22f"/>
  </g>
</svg>
