<?xml version="1.0"?>
<svg version="1.1" xmlns="http://www.w3.org/2000/svg" xmlns:xlink="http://www.w3.org/1999/xlink" width="511" height="511">
    <desc iVinci="yes" version="4.6" gridStep="20" showGrid="no" snapToGrid="no" codePlatform="0"/>
    <g id="Layer1" name="Layer 1" opacity="1">
        <g id="Shape1">
            <desc shapeID="1" type="0" basicInfo-basicType="0" basicInfo-roundedRectRadius="12" basicInfo-polygonSides="6" basicInfo-starPoints="5" bounding="rect(-191.499,-211.465,382.999,422.931)" text="" font-familyName="" font-pixelSize="20" font-bold="0" font-underline="0" font-alignment="1" strokeStyle="0" markerStart="0" markerEnd="0" shadowEnabled="0" shadowOffsetX="0" shadowOffsetY="2" shadowBlur="4" shadowOpacity="160" blurEnabled="0" blurRadius="4" transform="matrix(0.731898,0,0,0.813208,255.5,255.5)" pers-center="0,0" pers-size="0,0" pers-start="0,0" pers-end="0,0" locked="0" mesh="" flag=""/>
            <path id="shapePath1" d="M362.269,332.262 C362.05,332.193 361.827,332.14 361.603,332.103 L315.928,324.489 C308.541,319.18 307.845,306.01 307.831,291.75 C322.255,275.231 331.251,251.977 331.251,226.253 L331.251,224.169 C342.447,213.123 348.817,197.451 348.817,180.713 L348.817,141.679 C348.817,109.618 325.341,83.5345 296.486,83.5345 L220.369,83.5345 C209.442,83.5345 200.267,92.0244 197.905,103.378 C177.808,106.075 162.183,125.141 162.183,148.185 L162.183,180.713 C162.183,197.454 168.553,213.124 179.749,224.17 L179.749,226.253 C179.749,251.977 188.745,275.231 203.169,291.75 C203.155,306.01 202.458,319.179 195.072,324.489 L149.397,332.103 C149.172,332.14 148.949,332.193 148.73,332.262 C138.685,335.388 130.138,342.31 124.012,352.279 C118.421,361.379 115.341,372.363 115.341,383.21 L115.341,408.411 C115.341,418.918 123.777,427.466 134.146,427.466 L376.853,427.466 C387.222,427.466 395.658,418.918 395.658,408.411 L395.658,383.21 C395.658,372.364 392.578,361.379 386.987,352.28 C380.862,342.31 372.315,335.388 362.269,332.262 M255.5,316.925 C270.826,316.925 285.1,311.444 297.035,302.041 C297.563,313.172 299.638,325.523 307.785,332.966 C303.379,357.889 281.487,376.29 255.5,376.29 C229.512,376.29 207.621,357.889 203.215,332.966 C211.363,325.523 213.437,313.172 213.965,302.041 C225.9,311.444 240.174,316.925 255.5,316.925 M190.727,221.936 C190.758,221.564 190.757,221.193 190.727,220.823 L190.727,187.218 C190.727,176.232 198.771,167.294 208.658,167.294 L308.197,167.294 C311.228,167.294 313.686,164.564 313.686,161.195 C313.686,157.827 311.228,155.096 308.197,155.096 L208.658,155.096 C192.718,155.096 179.749,169.506 179.749,187.218 L179.749,205.6 C175.491,198.277 173.161,189.692 173.161,180.712 L173.161,148.184 C173.161,130.023 186.459,115.249 202.803,115.249 C205.835,115.249 208.293,112.519 208.293,109.15 C208.293,101.751 213.71,95.7318 220.369,95.7318 L296.486,95.7318 C319.288,95.7318 337.839,116.343 337.839,141.678 L337.839,180.712 C337.839,189.691 335.509,198.276 331.251,205.6 L331.251,180.712 C331.251,177.344 328.794,174.613 325.762,174.613 C322.731,174.613 320.273,177.344 320.273,180.712 L320.273,226.252 C320.273,269.523 291.216,304.726 255.5,304.726 C219.784,304.726 190.727,269.523 190.727,226.252 L190.727,221.936 M384.68,408.411 C384.68,412.128 381.096,415.267 376.854,415.267 L134.146,415.267 C129.904,415.267 126.32,412.128 126.32,408.411 L126.32,383.21 C126.32,367.752 134.926,349.427 151.376,344.108 L192.792,337.203 C198.932,366.838 224.887,388.488 255.5,388.488 C286.113,388.488 312.068,366.838 318.208,337.203 L359.623,344.108 C376.074,349.427 384.68,367.752 384.68,383.21 L384.68,408.411 Z" style="stroke:none;fill-rule:nonzero;fill:#ffffff;fill-opacity:1;"/>
        </g>
        <g id="Shape2">
            <desc shapeID="2" type="0" basicInfo-basicType="0" basicInfo-roundedRectRadius="12" basicInfo-polygonSides="6" basicInfo-starPoints="5" bounding="rect(-79.5023,-139.5,159.005,279)" text="" font-familyName="" font-pixelSize="20" font-bold="0" font-underline="0" font-alignment="1" strokeStyle="0" markerStart="0" markerEnd="0" shadowEnabled="0" shadowOffsetX="0" shadowOffsetY="2" shadowBlur="4" shadowOpacity="160" blurEnabled="0" blurRadius="4" transform="matrix(0.731898,0,0,0.813208,126.688,255.528)" pers-center="0,0" pers-size="0,0" pers-start="0,0" pers-end="0,0" locked="0" mesh="" flag=""/>
            <path id="shapePath2" d="M103.265,356.773 L82.6044,356.773 C80.8156,356.773 79.4784,355.568 79.4784,354.49 L79.4784,338.184 C79.4784,329.027 84.5234,318.188 94.1713,314.992 L124.052,310.011 C124.181,309.99 124.306,309.958 124.433,309.926 C124.488,309.912 124.544,309.905 124.599,309.889 C124.803,309.832 125.002,309.758 125.196,309.676 C125.243,309.657 125.289,309.632 125.335,309.611 C125.494,309.537 125.65,309.457 125.801,309.368 C125.826,309.354 125.853,309.344 125.878,309.328 C125.926,309.299 125.97,309.267 126.018,309.236 C126.059,309.21 126.1,309.184 126.141,309.157 C132.791,304.941 135.093,297.307 135.886,289.848 C143.173,294.652 151.54,297.395 160.437,297.395 C167.904,297.395 175.102,295.51 181.829,291.791 C184.543,290.291 185.65,286.631 184.299,283.615 C182.949,280.598 179.654,279.37 176.939,280.87 C171.744,283.741 166.192,285.197 160.437,285.197 C138.396,285.197 120.465,263.386 120.465,236.577 L120.465,210.561 C120.465,204.64 124.8,199.823 130.129,199.823 L144.251,199.823 C147.283,199.823 149.741,197.093 149.741,193.724 C149.741,190.356 147.283,187.625 144.251,187.625 L130.129,187.625 C118.746,187.625 109.486,197.914 109.486,210.561 L109.486,213.758 C109.009,211.609 108.754,209.383 108.754,207.113 L108.754,186.067 C108.754,175.504 116.488,166.911 125.995,166.911 C129.026,166.911 131.484,164.18 131.484,160.812 C131.484,157.212 134.12,154.284 137.36,154.284 L144.251,154.284 C147.283,154.284 149.741,151.554 149.741,148.185 C149.741,144.816 147.283,142.086 144.251,142.086 L137.36,142.086 C129.843,142.086 123.459,147.582 121.293,155.148 C107.963,157.642 97.7759,170.558 97.7759,186.067 L97.7759,207.113 C97.7759,218.411 102.019,228.991 109.486,236.529 L109.486,236.578 C109.486,253.873 115.576,269.492 125.317,280.577 C125.258,288.333 124.724,295.286 121.273,298.141 L92.1842,302.99 C91.9595,303.028 91.737,303.08 91.5174,303.149 C76.4059,307.852 68.5,324.334 68.5,338.184 L68.5,354.49 C68.5,362.474 74.8272,368.971 82.6044,368.971 L103.265,368.971 C106.297,368.971 108.754,366.241 108.754,362.872 C108.754,359.503 106.297,356.773 103.265,356.773 Z" style="stroke:none;fill-rule:nonzero;fill:#ffffff;fill-opacity:1;"/>
        </g>
        <g id="Shape3">
            <desc shapeID="3" type="0" basicInfo-basicType="0" basicInfo-roundedRectRadius="12" basicInfo-polygonSides="6" basicInfo-starPoints="5" bounding="rect(-79.5013,-139.5,159.003,279)" text="" font-familyName="" font-pixelSize="20" font-bold="0" font-underline="0" font-alignment="1" strokeStyle="0" markerStart="0" markerEnd="0" shadowEnabled="0" shadowOffsetX="0" shadowOffsetY="2" shadowBlur="4" shadowOpacity="160" blurEnabled="0" blurRadius="4" transform="matrix(0.731898,0,0,0.813208,384.313,255.527)" pers-center="0,0" pers-size="0,0" pers-start="0,0" pers-end="0,0" locked="0" mesh="" flag=""/>
            <path id="shapePath3" d="M419.482,303.148 C419.264,303.08 419.04,303.027 418.816,302.989 L389.727,298.14 C386.276,295.285 385.741,288.332 385.682,280.577 C395.424,269.492 401.513,253.872 401.513,236.577 L401.513,236.528 C408.98,228.991 413.223,218.409 413.223,207.106 L413.223,174.206 C413.223,156.495 400.254,142.085 384.313,142.085 L366.748,142.085 C363.716,142.085 361.259,144.815 361.259,148.184 C361.259,151.553 363.716,154.283 366.748,154.283 L384.313,154.283 C394.201,154.283 402.245,163.221 402.245,174.206 L402.245,207.112 C402.245,209.383 401.99,211.608 401.513,213.757 L401.513,210.56 C401.513,197.913 392.253,187.624 380.87,187.624 L366.749,187.624 C363.717,187.624 361.259,190.355 361.259,193.723 C361.259,197.093 363.717,199.822 366.749,199.822 L380.871,199.822 C386.2,199.822 390.535,204.639 390.535,210.56 L390.535,236.576 C390.535,263.385 372.604,285.196 350.565,285.196 C344.809,285.196 339.257,283.74 334.062,280.869 C331.347,279.369 328.052,280.598 326.702,283.614 C325.352,286.63 326.458,290.29 329.172,291.791 C335.9,295.509 343.097,297.394 350.565,297.394 C359.461,297.394 367.829,294.652 375.115,289.847 C375.907,297.306 378.21,304.94 384.861,309.156 C384.9,309.184 384.942,309.209 384.982,309.236 C385.03,309.266 385.074,309.298 385.123,309.327 C385.148,309.343 385.175,309.353 385.2,309.367 C385.35,309.456 385.506,309.536 385.665,309.61 C385.712,309.632 385.758,309.656 385.805,309.676 C385.999,309.758 386.197,309.831 386.401,309.889 C386.457,309.904 386.513,309.912 386.568,309.926 C386.693,309.957 386.819,309.989 386.947,310.011 L416.827,314.992 C426.476,318.187 431.521,329.026 431.521,338.183 L431.521,354.489 C431.521,355.567 430.184,356.772 428.395,356.772 L407.735,356.772 C404.703,356.772 402.246,359.502 402.246,362.871 C402.246,366.24 404.703,368.97 407.735,368.97 L428.396,368.97 C436.173,368.97 442.5,362.474 442.5,354.489 L442.5,338.183 C442.5,324.334 434.594,307.852 419.482,303.148 Z" style="stroke:none;fill-rule:nonzero;fill:#ffffff;fill-opacity:1;"/>
        </g>
    </g>
</svg>
