<?xml version="1.0"?>
<svg version="1.1" xmlns="http://www.w3.org/2000/svg" xmlns:xlink="http://www.w3.org/1999/xlink" width="511" height="511">
    <desc iVinci="yes" version="4.6" gridStep="20" showGrid="no" snapToGrid="no" codePlatform="0"/>
    <g id="Layer1" name="Layer 1" opacity="1">
        <g id="Shape1">
            <desc shapeID="1" type="0" basicInfo-basicType="0" basicInfo-roundedRectRadius="12" basicInfo-polygonSides="6" basicInfo-starPoints="5" bounding="rect(-255.5,-103.5,511,207)" text="" font-familyName="" font-pixelSize="20" font-bold="0" font-underline="0" font-alignment="1" strokeStyle="0" markerStart="0" markerEnd="0" shadowEnabled="0" shadowOffsetX="0" shadowOffsetY="2" shadowBlur="4" shadowOpacity="160" blurEnabled="0" blurRadius="4" transform="matrix(0.829746,0,0,0.821256,255.5,255.5)" pers-center="0,0" pers-size="0,0" pers-start="0,0" pers-end="0,0" locked="0" mesh="" flag=""/>
            <path id="shapePath1" d="M461.277,328.181 L460.123,328.181 C460.937,325.503 461.09,322.638 460.519,319.813 L451.131,273.348 C449.968,267.595 445.988,262.859 440.485,260.681 L418.319,251.905 C424.283,245.866 427.672,237.704 427.672,229.22 L427.672,227.212 C431.626,225.038 434.31,220.865 434.31,216.08 L434.31,196.37 C434.31,182.105 422.585,170.5 408.173,170.5 L381.621,170.5 C374.529,170.5 368.76,176.21 368.76,183.229 C368.76,183.455 368.574,183.64 368.345,183.64 C361.254,183.64 355.484,189.35 355.484,196.37 L355.484,216.08 C355.484,220.865 358.169,225.038 362.122,227.212 L362.122,228.091 C362.122,237.588 366.101,246.318 372.458,252.494 L351.78,260.681 C346.276,262.86 342.296,267.595 341.134,273.348 L331.744,319.813 C331.174,322.638 331.327,325.503 332.141,328.181 L320.725,328.181 C321.539,325.503 321.693,322.638 321.122,319.813 L311.733,273.348 C310.571,267.595 306.592,262.86 301.088,260.681 L278.922,251.905 C284.885,245.866 288.275,237.704 288.275,229.22 L288.275,227.212 C292.229,225.038 294.913,220.865 294.913,216.08 L294.913,196.37 C294.913,182.105 283.188,170.5 268.776,170.5 L242.224,170.5 C235.132,170.5 229.363,176.21 229.363,183.229 C229.363,183.455 229.177,183.64 228.948,183.64 C221.856,183.64 216.087,189.35 216.087,196.37 L216.087,216.08 C216.087,220.865 218.771,225.038 222.725,227.212 L222.725,228.091 C222.725,237.588 226.704,246.318 233.061,252.494 L212.382,260.681 C206.879,262.86 202.899,267.595 201.737,273.348 L192.348,319.813 C191.777,322.638 191.931,325.503 192.745,328.181 L181.328,328.181 C182.142,325.503 182.296,322.638 181.725,319.813 L172.336,273.348 C171.174,267.595 167.194,262.86 161.691,260.681 L139.525,251.905 C145.488,245.866 148.878,237.704 148.878,229.22 L148.878,227.212 C152.831,225.038 155.516,220.865 155.516,216.08 L155.516,196.37 C155.516,182.105 143.79,170.5 129.379,170.5 L102.827,170.5 C95.735,170.5 89.9657,176.21 89.9657,183.229 C89.9657,183.455 89.7799,183.64 89.5509,183.64 C82.459,183.64 76.6898,189.35 76.6898,196.37 L76.6898,216.08 C76.6898,220.865 79.374,225.038 83.3278,227.212 L83.3278,228.091 C83.3278,237.588 87.3064,246.318 93.6639,252.494 L72.985,260.681 C67.4813,262.86 63.5018,267.595 62.3393,273.348 L52.9508,319.813 C52.3799,322.638 52.5334,325.503 53.3474,328.181 L49.7231,328.181 C46.2863,328.181 43.5,330.939 43.5,334.341 C43.5,337.742 46.2863,340.5 49.7231,340.5 L77.9344,340.5 L154.271,340.5 L217.332,340.5 L293.668,340.5 L356.729,340.5 L433.066,340.5 L461.277,340.5 C464.714,340.5 467.5,337.742 467.5,334.341 C467.5,330.939 464.714,328.181 461.277,328.181 M448.314,322.228 C448.72,324.237 447.835,325.68 447.272,326.36 C446.708,327.04 445.454,328.181 443.383,328.181 L440.948,328.181 L440.948,285.775 L448.314,322.228 M438.925,275.764 L439.589,279.049 C438.169,276.982 435.775,275.621 433.066,275.621 L424.606,275.621 C425.667,273.38 426.463,271.025 426.979,268.602 L435.863,272.119 C437.446,272.746 438.591,274.108 438.925,275.764 M374.568,228.091 L374.568,216.08 C374.568,215.854 374.754,215.669 374.983,215.669 L414.811,215.669 C415.04,215.669 415.226,215.854 415.226,216.08 L415.226,229.22 C415.226,234.877 412.799,240.304 408.567,244.112 C404.278,247.972 398.708,249.795 392.88,249.245 C382.612,248.275 374.568,238.984 374.568,228.091 M368.345,195.959 C375.437,195.959 381.206,190.249 381.206,183.229 C381.206,183.004 381.392,182.819 381.621,182.819 L408.173,182.819 C415.722,182.819 421.864,188.898 421.864,196.37 L421.864,205.447 C419.837,204.126 417.415,203.35 414.811,203.35 L374.983,203.35 C372.38,203.35 369.958,204.126 367.93,205.447 L367.93,196.37 C367.93,196.144 368.116,195.959 368.345,195.959 M391.699,261.507 C392.743,261.606 393.787,261.655 394.828,261.655 C398.693,261.655 402.503,260.975 406.088,259.688 C406.695,260.336 407.448,260.869 408.332,261.219 L415.136,263.913 C414.729,268.29 412.879,272.343 409.786,275.621 L380.009,275.621 C377.137,272.577 375.339,268.865 374.77,264.847 L383.933,261.219 C384.529,260.983 385.067,260.666 385.541,260.286 C387.522,260.892 389.58,261.308 391.699,261.507 M356.402,272.118 L363.024,269.497 C363.536,271.605 364.26,273.657 365.189,275.621 L356.729,275.621 C355.459,275.621 354.262,275.927 353.198,276.457 L353.339,275.763 C353.673,274.108 354.818,272.746 356.402,272.118 M343.949,322.228 L348.846,297.994 L348.846,328.179 C346.797,328.166 345.552,327.036 344.991,326.36 C344.428,325.679 343.543,324.237 343.949,322.228 M308.917,322.228 C309.323,324.237 308.438,325.68 307.874,326.36 C307.311,327.04 306.056,328.181 303.985,328.181 L301.551,328.181 L301.551,285.775 L308.917,322.228 M299.528,275.764 L300.192,279.049 C298.772,276.982 296.378,275.621 293.668,275.621 L285.209,275.621 C286.269,273.38 287.066,271.025 287.581,268.602 L296.465,272.119 C298.048,272.746 299.194,274.108 299.528,275.764 M235.171,228.091 L235.171,216.08 C235.171,215.854 235.357,215.669 235.586,215.669 L275.414,215.669 C275.643,215.669 275.829,215.854 275.829,216.08 L275.829,229.22 C275.829,234.877 273.402,240.304 269.17,244.112 C264.881,247.972 259.309,249.795 253.483,249.245 C243.215,248.275 235.171,238.984 235.171,228.091 M228.948,195.959 C236.04,195.959 241.809,190.249 241.809,183.229 C241.809,183.004 241.995,182.819 242.224,182.819 L268.776,182.819 C276.325,182.819 282.467,188.898 282.467,196.37 L282.467,205.447 C280.44,204.126 278.018,203.35 275.414,203.35 L235.586,203.35 C232.982,203.35 230.56,204.126 228.533,205.447 L228.533,196.37 C228.533,196.144 228.719,195.959 228.948,195.959 M252.301,261.507 C253.346,261.606 254.39,261.655 255.431,261.655 C259.295,261.655 263.105,260.975 266.691,259.688 C267.298,260.336 268.051,260.869 268.934,261.219 L275.738,263.913 C275.332,268.29 273.482,272.343 270.389,275.621 L240.612,275.621 C237.74,272.577 235.942,268.865 235.373,264.847 L244.536,261.219 C245.131,260.983 245.67,260.666 246.144,260.286 C248.124,260.892 250.183,261.308 252.301,261.507 M217.005,272.118 L223.627,269.497 C224.139,271.605 224.862,273.657 225.792,275.621 L217.332,275.621 C216.061,275.621 214.865,275.927 213.801,276.457 L213.941,275.763 C214.276,274.108 215.421,272.746 217.005,272.118 M204.553,322.228 L209.449,297.995 L209.449,328.179 C207.4,328.166 206.155,327.036 205.594,326.36 C205.031,325.68 204.146,324.237 204.553,322.228 M169.519,322.228 C169.926,324.237 169.04,325.68 168.477,326.36 C167.914,327.04 166.659,328.181 164.588,328.181 L162.154,328.181 L162.154,285.775 L169.519,322.228 M160.131,275.764 L160.794,279.049 C159.375,276.982 156.981,275.621 154.271,275.621 L145.812,275.621 C146.872,273.38 147.669,271.025 148.184,268.602 L157.068,272.119 C158.651,272.746 159.796,274.108 160.131,275.764 M95.7739,228.091 L95.7739,216.08 C95.7739,215.854 95.9598,215.669 96.1888,215.669 L136.017,215.669 C136.246,215.669 136.431,215.854 136.431,216.08 L136.431,229.22 C136.431,234.877 134.004,240.304 129.773,244.112 C125.484,247.972 119.914,249.795 114.086,249.245 C103.817,248.275 95.7739,238.984 95.7739,228.091 M89.5509,195.959 C96.6427,195.959 102.412,190.249 102.412,183.229 C102.412,183.004 102.598,182.819 102.827,182.819 L129.379,182.819 C136.928,182.819 143.069,188.898 143.069,196.37 L143.069,205.447 C141.042,204.126 138.62,203.35 136.017,203.35 L96.1888,203.35 C93.5851,203.35 91.163,204.126 89.136,205.447 L89.136,196.37 C89.136,196.144 89.3218,195.959 89.5509,195.959 M112.904,261.507 C113.949,261.606 114.993,261.655 116.034,261.655 C119.898,261.655 123.708,260.975 127.293,259.688 C127.901,260.336 128.653,260.869 129.537,261.219 L136.341,263.913 C135.934,268.29 134.085,272.343 130.992,275.621 L101.214,275.621 C98.342,272.577 96.544,268.865 95.9747,264.847 L105.138,261.219 C105.733,260.983 106.272,260.666 106.746,260.286 C108.727,260.892 110.786,261.308 112.904,261.507 M77.6075,272.118 L84.2297,269.497 C84.7416,271.605 85.4652,273.657 86.3945,275.621 L77.9344,275.621 C76.6641,275.621 75.4676,275.927 74.4038,276.457 L74.5441,275.763 C74.8785,274.108 76.0235,272.746 77.6075,272.118 M65.1555,322.228 L70.0518,297.995 L70.0518,328.179 C68.0023,328.166 66.7577,327.036 66.1968,326.36 C65.6334,325.68 64.7489,324.237 65.1555,322.228 M82.498,328.181 L82.498,287.94 L149.707,287.94 L149.707,328.181 L82.498,328.181 M221.895,328.181 L221.895,287.94 L289.105,287.94 L289.105,328.181 L221.895,328.181 M361.293,328.181 L361.293,287.94 L428.502,287.94 L428.502,328.181 L361.293,328.181 Z" style="stroke:none;fill-rule:nonzero;fill:#ffffff;fill-opacity:1;"/>
        </g>
        <g id="Shape2">
            <desc shapeID="2" type="0" basicInfo-basicType="0" basicInfo-roundedRectRadius="12" basicInfo-polygonSides="6" basicInfo-starPoints="5" bounding="rect(-15.5,-7.5,31,15)" text="" font-familyName="" font-pixelSize="20" font-bold="0" font-underline="0" font-alignment="1" strokeStyle="0" markerStart="0" markerEnd="0" shadowEnabled="0" shadowOffsetX="0" shadowOffsetY="2" shadowBlur="4" shadowOpacity="160" blurEnabled="0" blurRadius="4" transform="matrix(0.829746,0,0,0.821256,255.5,308.06)" pers-center="0,0" pers-size="0,0" pers-start="0,0" pers-end="0,0" locked="0" mesh="" flag=""/>
            <path id="shapePath2" d="M262.138,301.901 L248.862,301.901 C245.425,301.901 242.639,304.659 242.639,308.06 C242.639,311.462 245.425,314.22 248.862,314.22 L262.138,314.22 C265.575,314.22 268.361,311.462 268.361,308.06 C268.361,304.659 265.575,301.901 262.138,301.901 Z" style="stroke:none;fill-rule:nonzero;fill:#ffffff;fill-opacity:1;"/>
        </g>
        <g id="Shape3">
            <desc shapeID="3" type="0" basicInfo-basicType="0" basicInfo-roundedRectRadius="12" basicInfo-polygonSides="6" basicInfo-starPoints="5" bounding="rect(-15.5,-7.5,31,15)" text="" font-familyName="" font-pixelSize="20" font-bold="0" font-underline="0" font-alignment="1" strokeStyle="0" markerStart="0" markerEnd="0" shadowEnabled="0" shadowOffsetX="0" shadowOffsetY="2" shadowBlur="4" shadowOpacity="160" blurEnabled="0" blurRadius="4" transform="matrix(0.829746,0,0,0.821256,394.897,308.06)" pers-center="0,0" pers-size="0,0" pers-start="0,0" pers-end="0,0" locked="0" mesh="" flag=""/>
            <path id="shapePath3" d="M401.535,301.901 L388.259,301.901 C384.822,301.901 382.036,304.659 382.036,308.06 C382.036,311.462 384.822,314.22 388.259,314.22 L401.535,314.22 C404.972,314.22 407.758,311.462 407.758,308.06 C407.758,304.659 404.972,301.901 401.535,301.901 Z" style="stroke:none;fill-rule:nonzero;fill:#ffffff;fill-opacity:1;"/>
        </g>
        <g id="Shape4">
            <desc shapeID="4" type="0" basicInfo-basicType="0" basicInfo-roundedRectRadius="12" basicInfo-polygonSides="6" basicInfo-starPoints="5" bounding="rect(-15.5,-7.5,31,15)" text="" font-familyName="" font-pixelSize="20" font-bold="0" font-underline="0" font-alignment="1" strokeStyle="0" markerStart="0" markerEnd="0" shadowEnabled="0" shadowOffsetX="0" shadowOffsetY="2" shadowBlur="4" shadowOpacity="160" blurEnabled="0" blurRadius="4" transform="matrix(0.829746,0,0,0.821256,116.103,308.06)" pers-center="0,0" pers-size="0,0" pers-start="0,0" pers-end="0,0" locked="0" mesh="" flag=""/>
            <path id="shapePath4" d="M122.741,301.901 L109.465,301.901 C106.028,301.901 103.242,304.659 103.242,308.06 C103.242,311.462 106.028,314.22 109.465,314.22 L122.741,314.22 C126.177,314.22 128.964,311.462 128.964,308.06 C128.964,304.659 126.177,301.901 122.741,301.901 Z" style="stroke:none;fill-rule:nonzero;fill:#ffffff;fill-opacity:1;"/>
        </g>
    </g>
</svg>
