<?xml version="1.0"?>
<svg version="1.1" xmlns="http://www.w3.org/2000/svg" xmlns:xlink="http://www.w3.org/1999/xlink" width="511" height="511">
    <desc iVinci="yes" version="4.6" gridStep="20" showGrid="no" snapToGrid="no" codePlatform="0"/>
    <g id="Layer1" name="Layer 1" opacity="1">
        <g id="Shape1">
            <desc shapeID="1" type="0" basicInfo-basicType="0" basicInfo-roundedRectRadius="12" basicInfo-polygonSides="6" basicInfo-starPoints="5" bounding="rect(-27.4998,-27.4999,54.9995,54.9998)" text="" font-familyName="" font-pixelSize="20" font-bold="0" font-underline="0" font-alignment="1" strokeStyle="0" markerStart="0" markerEnd="0" shadowEnabled="0" shadowOffsetX="0" shadowOffsetY="2" shadowBlur="4" shadowOpacity="160" blurEnabled="0" blurRadius="4" transform="matrix(0.786693,0,0,0.74892,174.844,264.604)" pers-center="0,0" pers-size="0,0" pers-start="0,0" pers-end="0,0" locked="0" mesh="" flag=""/>
            <path id="shapePath1" d="M186.406,245.654 L154.939,275.611 C152.634,277.804 152.634,281.361 154.939,283.554 C156.09,284.65 157.601,285.199 159.111,285.199 C160.62,285.199 162.131,284.651 163.282,283.554 L194.75,253.597 C197.054,251.403 197.054,247.847 194.75,245.654 C192.447,243.46 188.711,243.46 186.406,245.654 Z" style="stroke:none;fill-rule:nonzero;fill:#ffffff;fill-opacity:1;"/>
        </g>
        <g id="Shape2">
            <desc shapeID="2" type="0" basicInfo-basicType="0" basicInfo-roundedRectRadius="12" basicInfo-polygonSides="6" basicInfo-starPoints="5" bounding="rect(-27.4997,-27.4999,54.9995,54.9998)" text="" font-familyName="" font-pixelSize="20" font-bold="0" font-underline="0" font-alignment="1" strokeStyle="0" markerStart="0" markerEnd="0" shadowEnabled="0" shadowOffsetX="0" shadowOffsetY="2" shadowBlur="4" shadowOpacity="160" blurEnabled="0" blurRadius="4" transform="matrix(0.786693,0,0,0.74892,367.623,264.604)" pers-center="0,0" pers-size="0,0" pers-start="0,0" pers-end="0,0" locked="0" mesh="" flag=""/>
            <path id="shapePath2" d="M379.185,245.654 L347.718,275.611 C345.414,277.804 345.414,281.361 347.718,283.554 C348.869,284.65 350.38,285.199 351.89,285.199 C353.399,285.199 354.91,284.651 356.061,283.554 L387.529,253.597 C389.833,251.403 389.833,247.847 387.529,245.654 C385.225,243.46 381.489,243.46 379.185,245.654 Z" style="stroke:none;fill-rule:nonzero;fill:#ffffff;fill-opacity:1;"/>
        </g>
        <g id="Shape3">
            <desc shapeID="3" type="0" basicInfo-basicType="0" basicInfo-roundedRectRadius="12" basicInfo-polygonSides="6" basicInfo-starPoints="5" bounding="rect(-255.5,-79.6559,511,159.312)" text="" font-familyName="" font-pixelSize="20" font-bold="0" font-underline="0" font-alignment="1" strokeStyle="0" markerStart="0" markerEnd="0" shadowEnabled="0" shadowOffsetX="0" shadowOffsetY="2" shadowBlur="4" shadowOpacity="160" blurEnabled="0" blurRadius="4" transform="matrix(0.786693,0,0,0.74892,255.5,255.5)" pers-center="0,0" pers-size="0,0" pers-start="0,0" pers-end="0,0" locked="0" mesh="" flag=""/>
            <path id="shapePath3" d="M438.013,208.06 L425.807,208.06 C421.938,203.484 416.302,200.254 409.751,199.437 C371.357,194.646 332.423,194.646 294.029,199.437 C282.98,200.816 274.527,209.045 272.789,219.053 C267.802,215.875 261.832,214.052 255.5,214.052 C249.166,214.052 243.196,215.875 238.21,219.051 C236.472,209.044 228.02,200.815 216.971,199.437 C178.577,194.646 139.643,194.646 101.249,199.437 C94.6977,200.255 89.0618,203.484 85.1929,208.06 L72.9873,208.06 C62.7934,208.06 54.5,215.955 54.5,225.66 C54.5,235.364 62.7934,243.26 72.9873,243.26 L82.1216,243.26 C82.2538,244.272 82.3859,245.285 82.5181,246.297 C84.2512,259.564 86.0433,273.282 87.811,288.531 C89.5669,303.634 102.828,315.081 118.686,315.156 L199.561,315.156 C199.573,315.156 199.585,315.156 199.596,315.156 C215.409,315.066 228.657,303.62 230.411,288.529 C232.177,273.289 233.968,259.578 235.701,246.317 C235.983,244.152 236.266,241.986 236.549,239.817 C236.659,239.567 236.76,239.313 236.833,239.043 C239.024,230.943 246.7,225.285 255.501,225.285 C264.288,225.285 271.962,230.932 274.16,239.017 C274.235,239.293 274.337,239.555 274.451,239.81 C274.733,241.975 275.016,244.137 275.298,246.297 C277.031,259.564 278.823,273.282 280.591,288.531 C282.347,303.634 295.608,315.081 311.466,315.156 L392.341,315.156 C392.353,315.156 392.365,315.156 392.376,315.156 C408.189,315.066 421.436,303.62 423.191,288.529 C424.957,273.289 426.748,259.578 428.48,246.317 C428.613,245.298 428.746,244.279 428.879,243.26 L438.013,243.26 C448.207,243.26 456.5,235.364 456.5,225.66 C456.5,215.955 448.207,208.06 438.013,208.06 M72.9873,232.026 C69.3001,232.026 66.3004,229.17 66.3004,225.66 C66.3004,222.15 69.3001,219.294 72.9873,219.294 L79.97,219.294 C79.6341,221.364 79.5782,223.506 79.8528,225.679 C80.1226,227.814 80.3932,229.924 80.6639,232.026 L72.9873,232.026 M218.682,287.295 C217.587,296.713 209.36,303.858 199.541,303.922 L118.715,303.922 C116.27,303.911 113.925,303.458 111.763,302.644 L175.87,241.615 C178.174,239.421 178.174,235.865 175.87,233.672 C173.566,231.478 169.83,231.478 167.527,233.672 L102.605,295.476 C100.976,293.086 99.8906,290.31 99.5398,287.298 C97.7642,271.972 95.9666,258.215 94.2288,244.911 C93.3414,238.115 92.4548,231.331 91.5698,224.337 C90.7209,217.626 95.7518,211.454 102.784,210.576 C121.472,208.244 140.292,207.078 159.111,207.078 C170.768,207.078 182.424,207.528 194.049,208.422 L186.407,215.697 C184.103,217.891 184.103,221.447 186.407,223.64 C187.559,224.737 189.069,225.285 190.579,225.285 C192.089,225.285 193.599,224.737 194.751,223.64 L207.338,211.657 C207.919,211.104 208.353,210.464 208.641,209.781 C210.908,210.03 213.174,210.294 215.438,210.576 C222.471,211.453 227.501,217.626 226.652,224.337 C225.767,231.338 224.88,238.129 223.991,244.932 C222.253,258.229 220.457,271.98 218.682,287.295 M419.43,224.337 C418.545,231.338 417.658,238.129 416.769,244.932 C415.032,258.23 413.236,271.981 411.46,287.295 C410.365,296.714 402.138,303.859 392.319,303.923 L311.494,303.923 C309.049,303.912 306.704,303.459 304.542,302.644 L368.649,241.616 C370.953,239.422 370.953,235.865 368.649,233.673 C366.346,231.479 362.61,231.479 360.306,233.673 L295.384,295.477 C293.755,293.087 292.67,290.311 292.319,287.298 C290.543,271.973 288.746,258.216 287.008,244.912 C286.12,238.116 285.234,231.332 284.349,224.337 C283.5,217.627 288.531,211.454 295.563,210.577 C314.251,208.245 333.071,207.078 351.89,207.078 C363.547,207.078 375.203,207.529 386.828,208.423 L379.186,215.698 C376.882,217.891 376.882,221.448 379.186,223.641 C380.338,224.737 381.848,225.286 383.358,225.286 C384.868,225.286 386.378,224.738 387.53,223.641 L400.117,211.658 C400.698,211.105 401.132,210.464 401.42,209.782 C403.687,210.031 405.953,210.294 408.218,210.577 C415.249,211.453 420.279,217.626 419.43,224.337 M438.013,232.026 L430.336,232.026 C430.607,229.924 430.877,227.814 431.146,225.679 C431.422,223.506 431.366,221.364 431.03,219.294 L438.013,219.294 C441.7,219.294 444.7,222.15 444.7,225.66 C444.7,229.17 441.7,232.026 438.013,232.026 Z" style="stroke:none;fill-rule:nonzero;fill:#ffffff;fill-opacity:1;"/>
        </g>
    </g>
</svg>
