<?xml version="1.0" encoding="iso-8859-1"?>
<!-- Generator: Adobe Illustrator 16.0.0, SVG Export Plug-In . SVG Version: 6.00 Build 0)  -->
<!DOCTYPE svg PUBLIC "-//W3C//DTD SVG 1.1//EN" "http://www.w3.org/Graphics/SVG/1.1/DTD/svg11.dtd">
<svg xmlns="http://www.w3.org/2000/svg" xmlns:xlink="http://www.w3.org/1999/xlink" version="1.1" id="Capa_1" x="0px" y="0px" width="512px" height="512px" viewBox="0 0 46 46" style="enable-background:new 0 0 46 46;" xml:space="preserve">
<g>
	<g id="Cancel">
		<g>
			<path d="M23,0C10.298,0,0,10.298,0,23s10.298,23,23,23s23-10.298,23-23S35.702,0,23,0z M23,42C12.507,42,4,33.493,4,23     S12.507,4,23,4s19,8.507,19,19S33.493,42,23,42z M30.5,21h-15c-0.828,0-1.5,0.672-1.5,1.5v1c0,0.828,0.672,1.5,1.5,1.5h15     c0.828,0,1.5-0.672,1.5-1.5v-1C32,21.672,31.328,21,30.5,21z" fill="#8e989e"/>
		</g>
	</g>
</g>
<g>
</g>
<g>
</g>
<g>
</g>
<g>
</g>
<g>
</g>
<g>
</g>
<g>
</g>
<g>
</g>
<g>
</g>
<g>
</g>
<g>
</g>
<g>
</g>
<g>
</g>
<g>
</g>
<g>
</g>
</svg>
