<?xml version="1.0"?>
<svg version="1.1" xmlns="http://www.w3.org/2000/svg" xmlns:xlink="http://www.w3.org/1999/xlink" width="230.305" height="230.305">
    <desc iVinci="yes" version="4.6" gridStep="20" showGrid="no" snapToGrid="no" codePlatform="0"/>
    <g id="Layer1" name="Layer 1" opacity="1">
        <g id="Shape1">
            <desc shapeID="1" type="0" basicInfo-basicType="0" basicInfo-roundedRectRadius="12" basicInfo-polygonSides="6" basicInfo-starPoints="5" bounding="rect(-32.0004,-29.3248,64.0008,58.6497)" text="" font-familyName="" font-pixelSize="20" font-bold="0" font-underline="0" font-alignment="1" strokeStyle="0" markerStart="0" markerEnd="0" shadowEnabled="0" shadowOffsetX="0" shadowOffsetY="2" shadowBlur="4" shadowOpacity="160" blurEnabled="0" blurRadius="4" transform="matrix(0.6778,0,0,0.565791,115,128.033)" pers-center="0,0" pers-size="0,0" pers-start="0,0" pers-end="0,0" locked="0" mesh="" flag=""/>
            <path id="shapePath1" d="M135.879,143.263 C137.225,141.762 136.858,139.635 135.061,138.511 L119.067,128.516 L119.067,114.836 C119.067,112.961 117.245,111.441 115,111.441 C112.754,111.441 110.933,112.961 110.933,114.836 L110.933,128.516 L94.9399,138.511 C93.1424,139.635 92.7757,141.763 94.1218,143.263 C95.4679,144.764 98.0165,145.07 99.8146,143.946 L115,134.456 L130.185,143.946 C130.917,144.404 131.771,144.624 132.62,144.624 C133.858,144.623 135.08,144.154 135.879,143.263 Z" style="stroke:none;fill-rule:evenodd;fill:#ffffff;fill-opacity:1;"/>
        </g>
        <g id="Shape2">
            <desc shapeID="2" type="0" basicInfo-basicType="0" basicInfo-roundedRectRadius="12" basicInfo-polygonSides="6" basicInfo-starPoints="5" bounding="rect(-26.2487,-26.249,52.4975,52.4981)" text="" font-familyName="" font-pixelSize="20" font-bold="0" font-underline="0" font-alignment="1" strokeStyle="0" markerStart="0" markerEnd="0" shadowEnabled="0" shadowOffsetX="0" shadowOffsetY="2" shadowBlur="4" shadowOpacity="160" blurEnabled="0" blurRadius="4" transform="matrix(0.6778,0,0,0.565791,114.999,64.6995)" pers-center="0,0" pers-size="0,0" pers-start="0,0" pers-end="0,0" locked="0" mesh="" flag=""/>
            <path id="shapePath2" d="M115,79.5509 C124.81,79.5509 132.791,72.8887 132.791,64.6994 C132.791,56.5102 124.81,49.848 115,49.848 C105.189,49.848 97.2079,56.5102 97.2079,64.6994 C97.2079,72.8887 105.19,79.5509 115,79.5509 M115,56.6375 C120.325,56.6375 124.657,60.254 124.657,64.6994 C124.657,69.1449 120.325,72.7614 115,72.7614 C109.674,72.7614 105.341,69.1449 105.341,64.6994 C105.341,60.254 109.674,56.6375 115,56.6375 Z" style="stroke:none;fill-rule:evenodd;fill:#ffffff;fill-opacity:1;"/>
        </g>
        <g id="Shape3">
            <desc shapeID="3" type="0" basicInfo-basicType="0" basicInfo-roundedRectRadius="12" basicInfo-polygonSides="6" basicInfo-starPoints="5" bounding="rect(-39.7486,-20.2489,79.4971,40.4978)" text="" font-familyName="" font-pixelSize="20" font-bold="0" font-underline="0" font-alignment="1" strokeStyle="0" markerStart="0" markerEnd="0" shadowEnabled="0" shadowOffsetX="0" shadowOffsetY="2" shadowBlur="4" shadowOpacity="160" blurEnabled="0" blurRadius="4" transform="matrix(0.6778,0,0,0.565791,115,93.9004)" pers-center="0,0" pers-size="0,0" pers-start="0,0" pers-end="0,0" locked="0" mesh="" flag=""/>
            <path id="shapePath3" d="M92.125,105.357 L137.875,105.357 C140.12,105.357 141.941,103.837 141.941,101.962 L141.941,93.5887 C141.941,87.4431 135.952,82.4438 128.59,82.4438 L101.41,82.4438 C94.0473,82.4438 88.0582,87.4431 88.0582,93.5887 L88.0582,101.962 C88.0582,103.838 89.8788,105.357 92.125,105.357 M133.807,93.5887 L133.807,98.5677 L119.066,98.5677 L119.066,89.2333 L128.59,89.2333 C131.466,89.2333 133.807,91.187 133.807,93.5887 M96.1918,93.5887 C96.1918,91.187 98.533,89.2333 101.41,89.2333 L110.932,89.2333 L110.932,98.5683 L96.1918,98.5683 L96.1918,93.5887 Z" style="stroke:none;fill-rule:evenodd;fill:#ffffff;fill-opacity:1;"/>
        </g>
        <g id="Shape4">
            <desc shapeID="4" type="0" basicInfo-basicType="0" basicInfo-roundedRectRadius="12" basicInfo-polygonSides="6" basicInfo-starPoints="5" bounding="rect(-26.249,-26.2493,52.498,52.4985)" text="" font-familyName="" font-pixelSize="20" font-bold="0" font-underline="0" font-alignment="1" strokeStyle="0" markerStart="0" markerEnd="0" shadowEnabled="0" shadowOffsetX="0" shadowOffsetY="2" shadowBlur="4" shadowOpacity="160" blurEnabled="0" blurRadius="4" transform="matrix(0.6778,0,0,0.565791,70.4165,139.495)" pers-center="0,0" pers-size="0,0" pers-start="0,0" pers-end="0,0" locked="0" mesh="" flag=""/>
            <path id="shapePath4" d="M70.4165,154.346 C80.2269,154.346 88.2081,147.683 88.2081,139.495 C88.2081,131.305 80.2269,124.643 70.4165,124.643 C60.606,124.643 52.6249,131.305 52.6249,139.495 C52.6249,147.683 60.6067,154.346 70.4165,154.346 M70.4165,131.432 C75.742,131.432 80.0745,135.049 80.0745,139.495 C80.0745,143.94 75.742,147.556 70.4165,147.556 C65.091,147.556 60.7585,143.94 60.7585,139.495 C60.7585,135.049 65.0917,131.432 70.4165,131.432 Z" style="stroke:none;fill-rule:evenodd;fill:#ffffff;fill-opacity:1;"/>
        </g>
        <g id="Shape5">
            <desc shapeID="5" type="0" basicInfo-basicType="0" basicInfo-roundedRectRadius="12" basicInfo-polygonSides="6" basicInfo-starPoints="5" bounding="rect(-39.7485,-20.2493,79.497,40.4987)" text="" font-familyName="" font-pixelSize="20" font-bold="0" font-underline="0" font-alignment="1" strokeStyle="0" markerStart="0" markerEnd="0" shadowEnabled="0" shadowOffsetX="0" shadowOffsetY="2" shadowBlur="4" shadowOpacity="160" blurEnabled="0" blurRadius="4" transform="matrix(0.6778,0,0,0.565791,70.4168,168.695)" pers-center="0,0" pers-size="0,0" pers-start="0,0" pers-end="0,0" locked="0" mesh="" flag=""/>
            <path id="shapePath5" d="M84.007,157.238 L56.8265,157.238 C49.465,157.238 43.4752,162.238 43.4752,168.384 L43.4752,176.757 C43.4752,178.632 45.2965,180.152 47.542,180.152 L93.2915,180.152 C95.5371,180.152 97.3583,178.632 97.3583,176.757 L97.3583,168.384 C97.3583,162.239 91.3693,157.238 84.007,157.238 M51.6089,168.384 C51.6089,165.982 53.9493,164.028 56.8265,164.028 L66.3496,164.028 L66.3496,173.363 L51.6089,173.363 L51.6089,168.384 M89.2247,173.363 L74.4832,173.363 L74.4832,164.028 L84.0063,164.028 C86.8836,164.028 89.224,165.983 89.224,168.384 L89.224,173.363 L89.2247,173.363 Z" style="stroke:none;fill-rule:evenodd;fill:#ffffff;fill-opacity:1;"/>
        </g>
        <g id="Shape6">
            <desc shapeID="6" type="0" basicInfo-basicType="0" basicInfo-roundedRectRadius="12" basicInfo-polygonSides="6" basicInfo-starPoints="5" bounding="rect(-26.2493,-26.2493,52.4985,52.4985)" text="" font-familyName="" font-pixelSize="20" font-bold="0" font-underline="0" font-alignment="1" strokeStyle="0" markerStart="0" markerEnd="0" shadowEnabled="0" shadowOffsetX="0" shadowOffsetY="2" shadowBlur="4" shadowOpacity="160" blurEnabled="0" blurRadius="4" transform="matrix(0.6778,0,0,0.565791,159.582,139.495)" pers-center="0,0" pers-size="0,0" pers-start="0,0" pers-end="0,0" locked="0" mesh="" flag=""/>
            <path id="shapePath6" d="M159.582,154.346 C169.393,154.346 177.374,147.683 177.374,139.495 C177.374,131.305 169.393,124.643 159.582,124.643 C149.772,124.643 141.791,131.305 141.791,139.495 C141.791,147.683 149.773,154.346 159.582,154.346 M159.582,131.432 C164.908,131.432 169.24,135.049 169.24,139.495 C169.24,143.94 164.908,147.556 159.582,147.556 C154.257,147.556 149.925,143.94 149.925,139.495 C149.925,135.049 154.257,131.432 159.582,131.432 Z" style="stroke:none;fill-rule:evenodd;fill:#ffffff;fill-opacity:1;"/>
        </g>
        <g id="Shape7">
            <desc shapeID="7" type="0" basicInfo-basicType="0" basicInfo-roundedRectRadius="12" basicInfo-polygonSides="6" basicInfo-starPoints="5" bounding="rect(-39.7486,-20.2493,79.4971,40.4987)" text="" font-familyName="" font-pixelSize="20" font-bold="0" font-underline="0" font-alignment="1" strokeStyle="0" markerStart="0" markerEnd="0" shadowEnabled="0" shadowOffsetX="0" shadowOffsetY="2" shadowBlur="4" shadowOpacity="160" blurEnabled="0" blurRadius="4" transform="matrix(0.6778,0,0,0.565791,159.583,168.695)" pers-center="0,0" pers-size="0,0" pers-start="0,0" pers-end="0,0" locked="0" mesh="" flag=""/>
            <path id="shapePath7" d="M173.173,157.238 L145.992,157.238 C138.631,157.238 132.642,162.238 132.642,168.384 L132.642,176.757 C132.642,178.632 134.463,180.152 136.708,180.152 L182.457,180.152 C184.703,180.152 186.525,178.632 186.525,176.757 L186.525,168.384 C186.524,162.239 180.535,157.238 173.173,157.238 M140.775,168.384 C140.775,165.982 143.116,164.028 145.992,164.028 L155.516,164.028 L155.516,173.363 L140.775,173.363 L140.775,168.384 M178.39,173.363 L163.649,173.363 L163.649,164.028 L173.172,164.028 C176.05,164.028 178.39,165.983 178.39,168.384 L178.39,173.363 Z" style="stroke:none;fill-rule:evenodd;fill:#ffffff;fill-opacity:1;"/>
        </g>
    </g>
</svg>
