<?xml version="1.0" encoding="iso-8859-1"?>
<svg xmlns="http://www.w3.org/2000/svg" xmlns:xlink="http://www.w3.org/1999/xlink" version="1.1" viewBox="0 0 511 511" enable-background="new 0 0 511 511" width="512px" height="512px">
  <path d="m326.128,431.068l-38.925-358.103c4.783-4.305 7.797-10.539 7.797-17.465v-32c0-12.958-10.542-23.5-23.5-23.5h-32c-12.958,0-23.5,10.542-23.5,23.5v32c0,6.926 3.014,13.16 7.797,17.465l-38.924,358.103c-0.773,7.114 1.685,14.097 6.746,19.156l58.579,58.579c1.406,1.407 3.314,2.197 5.303,2.197s3.897-0.79 5.303-2.197l58.579-58.579c5.06-5.059 7.518-12.042 6.745-19.156zm-30.628,21.826l-88.312-88.313 1.842-16.945 95.864,95.865-9.394,9.393zm-82.697-122.697c-0.527-0.527-1.115-0.956-1.738-1.293l5.807-53.425 86.677,86.677 7.169,65.956-97.915-97.915zm73.525-126.476l-55.611-55.611 1.842-16.946 51.478,51.478 2.291,21.079zm2.587,23.8l7.169,65.956-73.21-73.21 5.763-53.023 60.278,60.277zm9.756,89.756l2.291,21.079-80.159-80.159c-0.573-0.573-1.217-1.03-1.902-1.379l1.893-17.418 77.877,77.877zm-67.671-261.777v-29.894l38.393,38.394h-29.893c-4.687,0-8.5-3.813-8.5-8.5zm49-32v29.894l-38.394-38.394h29.894c4.687,0 8.5,3.813 8.5,8.5zm-40.5,55.5h32c0.425,0 0.847-0.013 1.267-0.035l8.683,79.878-46.811-46.812 3.594-33.067c0.419,0.023 0.841,0.036 1.267,0.036zm16,413.894l-53.276-53.276c-1.83-1.83-2.719-4.355-2.439-6.928l5.323-48.975 79.786,79.786-29.394,29.393z" fill="#adc22f"/>
</svg>
